<?xml version="1.0" encoding="UTF-8"?>
<!DOCTYPE svg PUBLIC "-//W3C//DTD SVG 1.1//EN" "http://www.w3.org/Graphics/SVG/1.1/DTD/svg11.dtd">
<svg version="1.1" xmlns="http://www.w3.org/2000/svg" xmlns:xlink="http://www.w3.org/1999/xlink" x="0px" y="0px" width="612" height="270.37" viewBox="0, 0, 612, 270.37">
  <g id="Layer 1">
    <path d="M555.755,116.016 C552.928,115.073 549.002,114.524 545.52,114.524 C534.082,114.524 530.6,124.942 530.6,134.889 L530.6,225.718 L506.256,225.718 L506.256,90.389 L529.815,90.389 L530.365,106.227 C535.234,94.473 541.49,90.128 549.971,90.128 C554.498,90.128 556.017,90.886 558.372,91.673 L555.755,116.016 z M451.262,117.089 C450.738,128.344 450.476,139.076 450.476,149.547 L472.987,149.547 C473.25,144.574 473.25,138.029 473.25,135.673 C473.25,129.653 473.25,123.371 472.987,117.351 C472.464,106.095 472.203,98.504 462.518,98.504 C453.617,98.504 451.785,106.355 451.262,117.089 M500.471,149.285 C500.471,151.64 500.471,154.783 500.211,158.971 L450.476,158.971 C450.476,171.533 450.738,186.453 451.262,199.02 C451.785,210.538 454.403,219.174 463.04,219.174 C470.894,219.174 474.296,213.416 474.296,187.503 C474.296,183.574 474.033,173.891 473.772,170.486 L500.211,170.486 C500.471,175.461 500.471,176.768 500.471,179.91 C500.471,206.087 488.956,227.551 463.302,227.551 C437.126,227.551 424.563,206.348 424.563,156.877 C424.563,111.069 438.697,89.605 461.995,89.605 C492.096,89.604 500.471,121.015 500.471,149.285 M393.675,39.871 L418.543,39.871 L418.543,225.718 L393.675,225.718 L393.675,39.871 z M338.182,117.089 C337.657,128.344 337.397,139.076 337.397,149.547 L359.909,149.547 C360.172,144.574 360.172,138.553 360.172,136.197 C360.172,130.176 360.172,123.37 359.909,117.35 C359.386,106.094 359.124,98.503 349.439,98.503 C340.538,98.504 338.706,106.355 338.182,117.089 M387.393,149.285 C387.393,151.64 387.393,154.783 387.13,158.971 L337.397,158.971 C337.397,171.533 337.657,186.453 338.182,199.02 C338.706,210.538 341.323,219.174 349.962,219.174 C357.814,219.174 361.217,213.416 361.217,187.503 C361.217,183.574 360.956,173.891 360.694,170.486 L387.131,170.486 C387.394,175.461 387.394,176.768 387.394,179.91 C387.394,206.087 375.877,227.551 350.224,227.551 C324.05,227.551 311.484,208.703 311.484,159.232 C311.484,113.425 325.62,89.605 348.916,89.605 C379.017,89.604 387.393,121.015 387.393,149.285 M300.855,90.389 L315.146,90.389 L289.232,225.718 L269.601,225.718 L241.331,90.389 L267.245,90.389 L283.081,187.712 L300.855,90.389 z M201.283,158.707 C196.309,163.943 195.787,172.058 195.787,179.387 L195.787,198.235 C195.787,207.921 197.618,213.94 203.9,213.94 C211.492,213.94 215.417,208.181 215.68,200.852 C215.942,192.998 215.942,160.802 215.942,146.407 C210.706,150.332 206.256,153.473 201.283,158.707 M241.07,133.841 C241.07,148.5 240.546,195.094 240.546,225.718 L220.916,225.718 L218.298,213.677 C213.323,221.791 205.21,227.289 195.262,227.289 C179.034,227.289 170.396,216.033 170.396,199.281 L170.396,187.503 C170.396,177.293 174.322,168.132 181.651,161.588 C192.384,152.164 204.685,143.003 215.942,135.412 C216.204,128.868 216.204,120.229 216.204,113.162 C216.204,102.43 213.848,98.504 207.304,98.504 C200.498,98.504 198.116,103.216 198.116,115.519 C198.116,122.063 198.404,129.391 198.666,135.413 L173.798,135.413 C173.537,132.534 173.537,127.559 173.537,123.371 C173.537,100.337 189.504,89.342 207.304,89.342 C233.741,89.342 241.07,104.262 241.07,133.841 M169.925,116.016 C167.097,115.073 164.453,114.524 160.973,114.524 C149.533,114.524 146.052,124.942 146.052,134.889 L146.052,225.718 L121.709,225.718 L121.709,90.389 L145.267,90.389 L145.816,106.227 C150.685,94.473 156.941,90.128 165.422,90.128 C169.951,90.128 171.443,90.913 173.798,91.699 L169.925,116.016 z M137.152,39.347 L137.152,60.917 L108.882,60.917 L108.882,225.98 L83.229,225.98 L83.229,60.917 L53.128,60.917 L53.128,39.347 L137.152,39.347 z" fill="#FFFFFF"/>
    <path d="M171.076,51.646 L171.076,53.426 L161.797,53.426 L161.797,51.365 C161.797,46.399 159.924,45.274 157.206,45.274 C154.581,45.274 152.802,47.025 152.802,51.365 L152.802,67.953 C152.802,72.45 154.581,74.044 157.206,74.044 C159.924,74.044 161.797,72.919 161.797,67.953 L161.797,65.89 L171.076,65.89 L171.076,67.67 C171.076,76.948 164.422,80.416 157.206,80.416 C150.084,80.416 143.43,76.948 143.43,67.109 L143.43,52.209 C143.43,42.462 150.084,38.901 157.206,38.901 C164.422,38.901 171.076,42.369 171.076,51.646" fill="#FFFFFF"/>
    <path d="M188.6,58.815 C188.6,55.441 187.382,54.504 185.039,54.504 C182.884,54.504 181.572,55.441 181.572,58.815 L181.572,70.726 C181.572,74.193 182.884,75.037 185.039,75.037 C187.382,75.037 188.6,74.193 188.6,70.726 L188.6,58.815 z M197.127,60.456 L197.127,69.171 C197.127,76.387 192.91,80.416 185.038,80.416 C177.26,80.416 173.042,76.387 173.042,69.171 L173.042,60.456 C173.042,53.147 177.26,49.116 185.038,49.116 C192.911,49.116 197.127,53.146 197.127,60.456" fill="#FFFFFF"/>
    <path d="M223.555,56.8 L223.555,80.041 L215.027,80.041 L215.027,58.233 C215.027,56.265 213.753,55.488 211.784,55.488 C209.629,55.488 208.28,57.081 208.28,59.424 L208.28,80.041 L199.752,80.041 L199.752,49.491 L207.464,49.491 L207.492,52.799 L207.961,52.799 C208.993,50.924 211.757,49.115 215.122,49.115 C220.274,49.115 223.555,51.646 223.555,56.8" fill="#FFFFFF"/>
    <path d="M241.641,59.096 C241.641,55.723 240.142,54.505 238.08,54.505 C235.924,54.505 234.894,56.097 234.894,59.096 L234.894,70.727 C234.894,73.63 235.924,75.037 238.08,75.037 C240.328,75.037 241.641,73.726 241.641,70.727 L241.641,59.096 z M241.641,38.246 L250.168,38.246 L250.168,80.041 L242.579,80.041 L242.296,77.229 L241.828,77.229 C240.891,79.01 238.548,80.417 235.268,80.417 C229.365,80.417 226.085,77.136 226.085,69.171 L226.085,60.456 C226.085,51.647 230.114,49.116 236.393,49.116 C238.736,49.116 240.142,49.772 241.172,51.178 L241.641,51.178 L241.641,38.246 z" fill="#FFFFFF"/>
    <path d="M268.161,58.815 C268.161,55.441 266.943,54.504 264.599,54.504 C262.445,54.504 261.133,55.441 261.133,58.815 L261.133,61.954 L268.161,61.954 L268.161,58.815 z M273.278,38.246 L266.438,46.493 L260.814,46.493 L264.394,38.246 L273.278,38.246 z M276.689,60.456 L276.689,65.825 L261.133,65.825 L261.133,70.727 C261.133,73.82 262.445,75.038 264.599,75.038 C266.943,75.038 268.161,74.007 268.161,70.727 L268.161,68.514 L276.689,68.514 L276.689,69.171 C276.689,76.387 272.472,80.416 264.599,80.416 C256.823,80.416 252.605,76.387 252.605,69.171 L252.605,60.456 C252.605,53.147 256.823,49.116 264.599,49.116 C272.472,49.116 276.689,53.146 276.689,60.456" fill="#FFFFFF"/>
    <path d="M294.684,51.084 L294.684,80.041 L287.477,80.041 L287.477,39.37 L297.786,39.37 L308.003,64.11 L308.003,39.37 L315.219,39.37 L315.219,80.041 L307.627,80.041 z" fill="#FFFFFF"/>
    <path d="M330.212,66.715 C328.056,66.996 326.464,67.84 326.464,70.933 L326.464,72.151 C326.464,74.774 327.309,75.524 329.369,75.524 C331.337,75.524 333.398,73.368 333.398,71.213 L333.398,66.246 L330.212,66.715 z M330.024,54.504 C327.87,54.504 326.182,55.16 326.182,58.815 L326.182,60.455 L318.497,60.455 L318.497,58.394 C318.497,50.896 325.62,49.116 330.023,49.116 C339.3,49.116 341.926,53.239 341.926,60.455 L341.926,80.041 L334.522,80.041 L334.147,76.948 L333.677,76.948 C332.272,79.197 330.491,80.416 325.712,80.416 C320.933,80.416 317.933,77.135 317.933,72.544 L317.933,70.885 C317.933,65.731 321.495,63.294 327.774,62.545 L333.397,61.794 L333.397,58.815 C333.398,55.441 332.273,54.504 330.024,54.504" fill="#FFFFFF"/>
    <path d="M344.55,58.019 C344.55,52.115 349.48,49.116 356.038,49.116 C363.068,49.116 366.855,51.983 366.855,57.831 L366.855,59.144 L358.607,59.144 L358.607,57.559 C358.607,55.179 357.669,54.42 355.392,54.42 C353.545,54.42 352.299,55.526 352.299,57.372 C352.299,59.368 354.503,60.118 358.701,61.674 C364.22,63.67 367.791,65.516 367.791,71.045 C367.791,77.136 363.104,80.416 356.076,80.416 C348.955,80.416 344.361,77.886 344.361,71.045 L344.361,69.921 L352.513,69.921 L352.513,71.551 C352.513,74.269 354.107,75.206 356.357,75.206 C358.606,75.206 359.731,74.297 359.731,72.648 C359.731,70.726 359.168,69.826 353.452,67.671 C347.549,65.516 344.55,63.923 344.55,58.019" fill="#FFFFFF"/>
    <path d="M386.158,80.042 L380.254,80.042 C374.725,80.042 371.913,77.605 371.913,72.451 L371.913,55.179 L367.791,55.179 L367.791,49.49 L371.913,49.49 L371.913,40.588 L380.535,40.588 L380.535,49.49 L386.158,49.49 L386.158,55.179 L380.535,55.179 L380.535,71.279 C380.535,72.685 380.912,73.996 383.535,73.996 L386.158,73.996 L386.158,80.042 z" fill="#FFFFFF"/>
  </g>
  <defs/>
</svg>
