<?xml version="1.0" encoding="UTF-8"?>
<!DOCTYPE svg PUBLIC "-//W3C//DTD SVG 1.1//EN" "http://www.w3.org/Graphics/SVG/1.1/DTD/svg11.dtd">
<svg version="1.1" xmlns="http://www.w3.org/2000/svg" xmlns:xlink="http://www.w3.org/1999/xlink" x="0px" y="0px" width="33" height="17" viewBox="0, 0, 33, 17">
  <g id="Layer 1">
    <path d="M31.5,14.001 C32.328,14.001 33,14.671 33,15.499 C33,16.329 32.328,17 31.5,17 L1.5,17 C0.672,17 0,16.329 0,15.499 C0,14.671 0.672,14.001 1.5,14.001 z M1.5,7 C0.672,7 0,7.671 0,8.5 C0,9.329 0.672,10 1.5,10 L31.5,10 C32.328,10 33,9.329 33,8.5 C33,7.671 32.328,7 31.5,7 z M1.5,0 C0.672,0 0,0.671 0,1.5 C0,2.329 0.672,3 1.5,3 L31.5,3 C32.328,3 33,2.329 33,1.5 C33,0.671 32.328,0 31.5,0 z" fill="#000000"/>
  </g>
  <defs/>
</svg>
