<svg xmlns="http://www.w3.org/2000/svg" xmlns:xlink="http://www.w3.org/1999/xlink" version="1.1" x="0" y="0" width="33" height="17" viewBox="0">
  <g id="hamburger-menu">
    <path class="hamburger" d="M31.5 14C32.33 14 33 14.67 33 15.5 33 16.33 32.33 17 31.5 17L1.5 17C0.67 17 0 16.33 0 15.5 0 14.67 0.67 14 1.5 14zM1.5 7C0.67 7 0 7.67 0 8.5 0 9.33 0.67 10 1.5 10L31.5 10C32.33 10 33 9.33 33 8.5 33 7.67 32.33 7 31.5 7zM1.5 0C0.67 0 0 0.67 0 1.5 0 2.33 0.67 3 1.5 3L31.5 3C32.33 3 33 2.33 33 1.5 33 0.67 32.33 0 31.5 0z"/>
  </g>
</svg>