<?xml version="1.0" encoding="UTF-8" standalone="no"?>
<svg width="33px" height="17px" viewBox="0 0 33 17" version="1.1" xmlns="http://www.w3.org/2000/svg" xmlns:xlink="http://www.w3.org/1999/xlink" xmlns:sketch="http://www.bohemiancoding.com/sketch/ns">
    <title>hamburger-lite-gray</title>
    <description>Created with Sketch (http://www.bohemiancoding.com/sketch)</description>
    <defs></defs>
    <g id="Page-1" stroke="none" stroke-width="1" fill="none" fill-rule="evenodd" sketch:type="MSPage">
        <path d="M31.5,14.001 C32.328,14.001 33,14.671 33,15.499 C33,16.329 32.328,17 31.5,17 L1.5,17 C0.672,17 0,16.329 0,15.499 C0,14.671 0.672,14.001 1.5,14.001 L31.5,14.001 Z M1.5,7 C0.672,7 0,7.671 0,8.5 C0,9.329 0.672,10 1.5,10 L31.5,10 C32.328,10 33,9.329 33,8.5 C33,7.671 32.328,7 31.5,7 L1.5,7 Z M1.5,0 C0.672,0 0,0.671 0,1.5 C0,2.329 0.672,3 1.5,3 L31.5,3 C32.328,3 33,2.329 33,1.5 C33,0.671 32.328,0 31.5,0 L1.5,0 Z" id="Shape-copy" fill="#E4E4E4" sketch:type="MSShapeGroup"></path>
    </g>
</svg>