<?xml version="1.0" encoding="UTF-8" standalone="no"?>
<svg width="51px" height="48px" viewBox="0 0 51 48" version="1.1" xmlns="http://www.w3.org/2000/svg" xmlns:xlink="http://www.w3.org/1999/xlink" xmlns:sketch="http://www.bohemiancoding.com/sketch/ns">
    <title>itinerary-map-icon-lite-gray-blue</title>
    <description>Created with Sketch (http://www.bohemiancoding.com/sketch)</description>
    <defs></defs>
    <g id="Page-1" stroke="none" stroke-width="1" fill="none" fill-rule="evenodd" sketch:type="MSPage">
        <g id="Group-copy" sketch:type="MSLayerGroup">
            <path d="M2,39.0957926 L13,45.1226517 L13,47.1226517 L0,40 L0,39 L0,1.5 L0,-2.84217094e-13 L1.82516295,1 L2,1 L2,1.09579257 L13,7.12265171 L13,9.12265171 L2,3.09579257 L2,39.0957926 Z M25.5,2.27394814 L38,9.12265171 L38,7.12265171 L26,0.547896286 L26,-2.84217094e-13 L25.5,0.273948143 L25,-2.84217094e-13 L25,0.547896286 L13,7.12265171 L13,9.12265171 L25.5,2.27394814 Z M25.5,40.2739481 L38,47.1226517 L38,45.1226517 L26,38.5478963 L26,38 L25.5,38.2739481 L25,38 L25,38.5478963 L13,45.1226517 L13,47.1226517 L25.5,40.2739481 L25.5,40.2739481 Z M49,39.0957926 L38,45.1226517 L38,47.1226517 L51,40 L51,39 L51,1.5 L51,-2.84217094e-13 L49.1748371,1 L49,1 L49,1.09579257 L38,7.12265171 L38,9.12265171 L49,3.09579257 L49,39.0957926 L49,39.0957926 Z" id="Rectangle-4" fill="#E4E4E4" sketch:type="MSShapeGroup"></path>
            <path d="M39.5,32 C41.0022466,28.1692945 44,24.8144408 44,22.6666667 C44,20.5188925 42.4059317,18 39.5,18 C36.5940683,18 35,20.5188925 35,22.6666667 C35,24.8144408 38.0722069,28.1692945 39.5,32 Z M39.5,24.2222222 C40.7426407,24.2222222 41.75,23.1775534 41.75,21.8888889 C41.75,20.6002244 40.7426407,19.5555556 39.5,19.5555556 C38.2573593,19.5555556 37.25,20.6002244 37.25,21.8888889 C37.25,23.1775534 38.2573593,24.2222222 39.5,24.2222222 Z" id="Oval-1-copy-4" fill="#00AEEF" sketch:type="MSShapeGroup"></path>
            <path d="M23.5,34 C25.0022466,30.1692945 28,26.8144408 28,24.6666667 C28,22.5188925 26.4059317,20 23.5,20 C20.5940683,20 19,22.5188925 19,24.6666667 C19,26.8144408 22.0722069,30.1692945 23.5,34 Z M23.5,26.2222222 C24.7426407,26.2222222 25.75,25.1775534 25.75,23.8888889 C25.75,22.6002244 24.7426407,21.5555556 23.5,21.5555556 C22.2573593,21.5555556 21.25,22.6002244 21.25,23.8888889 C21.25,25.1775534 22.2573593,26.2222222 23.5,26.2222222 Z" id="Oval-1-copy-3" fill="#00AEEF" sketch:type="MSShapeGroup"></path>
            <path d="M11.5,27 C13.0022466,23.1692945 16,19.8144408 16,17.6666667 C16,15.5188925 14.4059317,13 11.5,13 C8.59406829,13 7,15.5188925 7,17.6666667 C7,19.8144408 10.0722069,23.1692945 11.5,27 Z M11.5,19.2222222 C12.7426407,19.2222222 13.75,18.1775534 13.75,16.8888889 C13.75,15.6002244 12.7426407,14.5555556 11.5,14.5555556 C10.2573593,14.5555556 9.25,15.6002244 9.25,16.8888889 C9.25,18.1775534 10.2573593,19.2222222 11.5,19.2222222 Z" id="Oval-1-copy-2" fill="#00AEEF" sketch:type="MSShapeGroup"></path>
        </g>
    </g>
</svg>