<?xml version="1.0" encoding="utf-8"?>
<!-- Generator: Adobe Illustrator 15.1.0, SVG Export Plug-In . SVG Version: 6.00 Build 0)  -->
<!DOCTYPE svg PUBLIC "-//W3C//DTD SVG 1.1//EN" "http://www.w3.org/Graphics/SVG/1.1/DTD/svg11.dtd">
<svg version="1.1" id="Layer_1" xmlns="http://www.w3.org/2000/svg" xmlns:xlink="http://www.w3.org/1999/xlink" x="0px" y="0px"
	 width="612px" height="270.37px" viewBox="0 0 612 270.37" enable-background="new 0 0 612 270.37" xml:space="preserve">
<path d="M555.755,116.016c-2.827-0.943-6.753-1.492-10.235-1.492c-11.438,0-14.92,10.418-14.92,20.365v90.829h-24.344V90.389h23.559
	l0.55,15.838c4.869-11.754,11.125-16.099,19.606-16.099c4.527,0,6.046,0.758,8.401,1.545L555.755,116.016z M451.262,117.089
	c-0.524,11.255-0.786,21.987-0.786,32.458h22.511c0.263-4.973,0.263-11.518,0.263-13.874c0-6.02,0-12.302-0.263-18.322
	c-0.523-11.256-0.784-18.847-10.469-18.847C453.617,98.504,451.785,106.355,451.262,117.089 M500.471,149.285
	c0,2.355,0,5.498-0.26,9.686h-49.735c0,12.562,0.262,27.482,0.786,40.049c0.523,11.518,3.141,20.154,11.778,20.154
	c7.854,0,11.256-5.758,11.256-31.671c0-3.929-0.263-13.612-0.524-17.017h26.439c0.26,4.975,0.26,6.282,0.26,9.424
	c0,26.177-11.515,47.641-37.169,47.641c-26.176,0-38.739-21.203-38.739-70.674c0-45.808,14.134-67.272,37.432-67.272
	C492.096,89.604,500.471,121.015,500.471,149.285 M393.675,39.871h24.868v185.847h-24.868V39.871z M338.182,117.089
	c-0.525,11.255-0.785,21.987-0.785,32.458h22.512c0.263-4.973,0.263-10.994,0.263-13.35c0-6.021,0-12.827-0.263-18.847
	c-0.523-11.256-0.785-18.847-10.47-18.847C340.538,98.504,338.706,106.355,338.182,117.089 M387.393,149.285
	c0,2.355,0,5.498-0.263,9.686h-49.733c0,12.562,0.26,27.482,0.785,40.049c0.524,11.518,3.141,20.154,11.78,20.154
	c7.852,0,11.255-5.758,11.255-31.671c0-3.929-0.261-13.612-0.523-17.017h26.437c0.263,4.975,0.263,6.282,0.263,9.424
	c0,26.177-11.517,47.641-37.17,47.641c-26.174,0-38.74-18.848-38.74-68.319c0-45.807,14.136-69.627,37.432-69.627
	C379.017,89.604,387.393,121.015,387.393,149.285 M300.855,90.389h14.291l-25.914,135.329h-19.631l-28.27-135.329h25.914
	l15.836,97.323L300.855,90.389z M201.283,158.707c-4.974,5.236-5.496,13.351-5.496,20.68v18.848c0,9.686,1.831,15.705,8.113,15.705
	c7.592,0,11.517-5.759,11.78-13.088c0.262-7.854,0.262-40.05,0.262-54.445C210.706,150.332,206.256,153.473,201.283,158.707
	 M241.07,133.841c0,14.659-0.524,61.253-0.524,91.877h-19.63l-2.618-12.041c-4.975,8.114-13.088,13.612-23.036,13.612
	c-16.228,0-24.866-11.256-24.866-28.008v-11.778c0-10.21,3.926-19.371,11.255-25.915c10.733-9.424,23.034-18.585,34.291-26.176
	c0.262-6.544,0.262-15.183,0.262-22.25c0-10.732-2.356-14.658-8.9-14.658c-6.806,0-9.188,4.712-9.188,17.015
	c0,6.544,0.288,13.872,0.55,19.894h-24.868c-0.261-2.879-0.261-7.854-0.261-12.042c0-23.034,15.967-34.029,33.767-34.029
	C233.741,89.342,241.07,104.262,241.07,133.841 M169.925,116.016c-2.828-0.943-5.472-1.492-8.952-1.492
	c-11.44,0-14.921,10.418-14.921,20.365v90.829h-24.343V90.389h23.558l0.549,15.838c4.869-11.754,11.125-16.099,19.606-16.099
	c4.529,0,6.021,0.785,8.376,1.571L169.925,116.016z M137.152,39.347v21.57h-28.27v165.063H83.229V60.917H53.128v-21.57H137.152z"/>
<path d="M171.076,51.646v1.78h-9.279v-2.061c0-4.966-1.873-6.091-4.591-6.091c-2.625,0-4.404,1.751-4.404,6.091v16.588
	c0,4.497,1.779,6.091,4.404,6.091c2.718,0,4.591-1.125,4.591-6.091V65.89h9.279v1.78c0,9.278-6.654,12.746-13.87,12.746
	c-7.122,0-13.776-3.468-13.776-13.307v-14.9c0-9.747,6.654-13.308,13.776-13.308C164.422,38.901,171.076,42.369,171.076,51.646"/>
<path d="M188.6,58.815c0-3.374-1.218-4.311-3.561-4.311c-2.155,0-3.467,0.937-3.467,4.311v11.911c0,3.467,1.312,4.311,3.467,4.311
	c2.343,0,3.561-0.844,3.561-4.311V58.815z M197.127,60.456v8.715c0,7.216-4.217,11.245-12.089,11.245
	c-7.778,0-11.996-4.029-11.996-11.245v-8.715c0-7.309,4.218-11.34,11.996-11.34C192.911,49.116,197.127,53.146,197.127,60.456"/>
<path d="M223.555,56.8v23.241h-8.528V58.233c0-1.968-1.274-2.745-3.243-2.745c-2.155,0-3.504,1.593-3.504,3.936v20.617h-8.528
	v-30.55h7.712l0.028,3.308h0.469c1.032-1.875,3.796-3.684,7.161-3.684C220.274,49.115,223.555,51.646,223.555,56.8"/>
<path d="M241.641,59.096c0-3.373-1.499-4.591-3.561-4.591c-2.156,0-3.186,1.592-3.186,4.591v11.631c0,2.903,1.03,4.31,3.186,4.31
	c2.248,0,3.561-1.311,3.561-4.31V59.096z M241.641,38.246h8.527v41.795h-7.589l-0.283-2.812h-0.468
	c-0.937,1.781-3.28,3.188-6.56,3.188c-5.903,0-9.183-3.281-9.183-11.246v-8.715c0-8.809,4.029-11.34,10.308-11.34
	c2.343,0,3.749,0.656,4.779,2.062h0.469V38.246z"/>
<path d="M268.161,58.815c0-3.374-1.218-4.311-3.562-4.311c-2.154,0-3.466,0.937-3.466,4.311v3.139h7.028V58.815z M273.278,38.246
	l-6.84,8.247h-5.624l3.58-8.247H273.278z M276.689,60.456v5.369h-15.556v4.902c0,3.093,1.312,4.311,3.466,4.311
	c2.344,0,3.562-1.031,3.562-4.311v-2.213h8.528v0.657c0,7.216-4.217,11.245-12.09,11.245c-7.776,0-11.994-4.029-11.994-11.245
	v-8.715c0-7.309,4.218-11.34,11.994-11.34C272.472,49.116,276.689,53.146,276.689,60.456"/>
<polygon points="294.684,51.084 294.684,80.041 287.477,80.041 287.477,39.37 297.786,39.37 308.003,64.11 308.003,39.37 
	315.219,39.37 315.219,80.041 307.627,80.041 "/>
<path d="M330.212,66.715c-2.156,0.281-3.748,1.125-3.748,4.218v1.218c0,2.623,0.845,3.373,2.905,3.373
	c1.968,0,4.029-2.156,4.029-4.311v-4.967L330.212,66.715z M330.024,54.504c-2.154,0-3.842,0.656-3.842,4.311v1.64h-7.685v-2.061
	c0-7.498,7.123-9.278,11.526-9.278c9.277,0,11.903,4.123,11.903,11.339v19.586h-7.404l-0.375-3.093h-0.47
	c-1.405,2.249-3.186,3.468-7.965,3.468s-7.779-3.281-7.779-7.872v-1.659c0-5.154,3.562-7.591,9.841-8.34l5.623-0.751v-2.979
	C333.398,55.441,332.273,54.504,330.024,54.504"/>
<path d="M344.55,58.019c0-5.904,4.93-8.903,11.488-8.903c7.03,0,10.817,2.867,10.817,8.715v1.313h-8.248v-1.585
	c0-2.38-0.938-3.139-3.215-3.139c-1.847,0-3.093,1.106-3.093,2.952c0,1.996,2.204,2.746,6.402,4.302
	c5.519,1.996,9.09,3.842,9.09,9.371c0,6.091-4.687,9.371-11.715,9.371c-7.121,0-11.715-2.53-11.715-9.371v-1.124h8.152v1.63
	c0,2.718,1.594,3.655,3.844,3.655c2.249,0,3.374-0.909,3.374-2.558c0-1.922-0.563-2.822-6.279-4.977
	C347.549,65.516,344.55,63.923,344.55,58.019"/>
<path d="M386.158,80.042h-5.904c-5.529,0-8.341-2.437-8.341-7.591V55.179h-4.122V49.49h4.122v-8.902h8.622v8.902h5.623v5.689h-5.623
	v16.1c0,1.406,0.377,2.717,3,2.717h2.623V80.042z"/>
</svg>
