<?xml version="1.0" encoding="UTF-8" standalone="no"?>
<svg width="30px" height="30px" viewBox="0 0 30 30" version="1.1" xmlns="http://www.w3.org/2000/svg" xmlns:xlink="http://www.w3.org/1999/xlink" xmlns:sketch="http://www.bohemiancoding.com/sketch/ns">
    <title>price-marker-blue</title>
    <description>Created with Sketch (http://www.bohemiancoding.com/sketch)</description>
    <defs></defs>
    <g id="Page-1" stroke="none" stroke-width="1" fill="none" fill-rule="evenodd" sketch:type="MSPage">
        <path d="M15,30 C23.2842717,30 30,23.2842717 30,15 C30,6.71572834 23.2842717,0 15,0 C6.71572834,0 0,6.71572834 0,15 C0,23.2842717 6.71572834,30 15,30 L15,30 Z M19.374,8.896 C18.324,7.993 17.127,7.468 15.762,7.321 L15.762,5.998 L14.082,5.998 L14.082,7.3 C11.814,7.594 10.26,9.106 10.26,11.227 L10.26,11.248 C10.26,13.39 11.436,14.524 14.124,15.553 L14.124,19.879 C12.969,19.669 11.982,19.081 11.058,18.22 L9.714,20.005 C10.953,21.181 12.507,21.832 14.082,22 L14.082,24.1 L15.762,24.1 L15.762,22 C18.072,21.706 19.647,20.194 19.647,18.01 L19.647,17.968 C19.647,15.91 18.534,14.65 15.72,13.579 L15.72,9.442 C16.56,9.631 17.358,10.093 18.114,10.702 L19.374,8.896 L19.374,8.896 Z M12.612,11.101 L12.612,11.08 C12.612,10.261 13.116,9.589 14.124,9.379 L14.124,12.97 C12.948,12.403 12.612,11.899 12.612,11.101 L12.612,11.101 Z M17.316,18.073 L17.316,18.115 C17.316,19.018 16.749,19.69 15.72,19.9 L15.72,16.141 C16.959,16.708 17.316,17.275 17.316,18.073 L17.316,18.073 Z" id="Oval-1-copy" fill="#00AEEF" sketch:type="MSShapeGroup"></path>
    </g>
</svg>