<?xml version="1.0" encoding="UTF-8" standalone="no"?>
<svg width="64px" height="30px" viewBox="0 0 64 30" version="1.1" xmlns="http://www.w3.org/2000/svg" xmlns:xlink="http://www.w3.org/1999/xlink" xmlns:sketch="http://www.bohemiancoding.com/sketch/ns">
    <title>slideshow-icon-white</title>
    <description>Created with Sketch (http://www.bohemiancoding.com/sketch)</description>
    <defs></defs>
    <g id="Page-1" stroke="none" stroke-width="1" fill="none" fill-rule="evenodd" sketch:type="MSPage">
        <path d="M0,9 L0,8 L5,8 L5,10 L2,10 L2,19 L5,19 L5,21 L0,21 L0,19.5 L0,9 Z M6,5 L6,4 L11,4 L11,6 L8,6 L8,24 L11,24 L11,26 L7,26 L6,26 L6,5 Z M62,10 L59,10 L59,8 L63,8 L64,8 L64,19.5 L64,21 L59,21 L59,19 L62,19 L62,10 Z M56,6 L53,6 L53,4 L57,4 L58,4 L58,25 L58,26 L53,26 L53,24 L56,24 L56,6 L56,6 Z M52,1 L52,0 L12,0 L12,1 L12,1 L12,30 L13,30 L51,30 L52,30 L52,1 L52,1 Z M50,2 L14,2 L14,28 L50,28 L50,2 L50,2 Z" id="Rectangle-2-copy" fill="#FFFFFF" sketch:type="MSShapeGroup"></path>
    </g>
</svg>